<?xml version="1.0" encoding="UTF-8" standalone="no"?>
<!DOCTYPE svg PUBLIC "-//W3C//DTD SVG 1.1//EN" "http://www.w3.org/Graphics/SVG/1.1/DTD/svg11.dtd">
<svg width="100%" height="100%" viewBox="0 0 115 115" version="1.1" xmlns="http://www.w3.org/2000/svg" xmlns:xlink="http://www.w3.org/1999/xlink" xml:space="preserve" xmlns:serif="http://www.serif.com/" style="fill-rule:evenodd;clip-rule:evenodd;stroke-linejoin:round;stroke-miterlimit:2;">
    <g transform="matrix(1,0,0,1,-1158.17,-224.601)">
        <g>
            <g transform="matrix(1,0,0,1,1170.41,331.561)">
                <path d="M0,-31.404L-7.378,-26.74C-6.056,-23.741 -4.499,-20.87 -2.702,-18.167L18.337,-31.404L30.562,-31.404L1.222,-12.946C1.936,-12.099 2.693,-11.292 3.455,-10.489L32.009,-28.462L32.009,5.895C33.801,6.31 35.625,6.635 37.477,6.877L37.477,-38.281L-11.087,-38.281C-10.606,-35.926 -9.935,-33.644 -9.174,-31.404L0,-31.404Z" style="fill:white;fill-rule:nonzero;"/>
            </g>
            <g transform="matrix(1,0,0,1,1207.89,272.64)">
                <path d="M0,-47.495C-1.852,-47.253 -3.676,-46.928 -5.468,-46.513L-5.468,-9.82L-35.335,-28.684C-37.179,-26.6 -38.888,-24.4 -40.416,-22.061L-16.374,-6.885L-28.604,-6.885L-43.647,-16.386C-44.358,-14.966 -45.025,-13.523 -45.618,-12.039L-37.477,-6.885L-47.399,-6.885C-48.052,-4.646 -48.543,-2.344 -48.921,0L0,0L0,-47.495Z" style="fill:white;fill-rule:nonzero;"/>
            </g>
            <g transform="matrix(1,0,0,1,1271.74,225.369)">
                <path d="M0,47.271C-0.378,44.928 -0.869,42.625 -1.522,40.387L-9.978,40.387L-3.027,35.988C-4.083,33.233 -5.329,30.58 -6.78,28.049L-26.405,40.387L-38.636,40.387L-10.347,22.603C-11.199,21.445 -12.074,20.31 -13.009,19.221L-41.988,37.451L-41.988,1.135C-43.779,0.669 -45.6,0.292 -47.455,0L-47.455,47.271L0,47.271Z" style="fill:white;fill-rule:nonzero;"/>
            </g>
            <g transform="matrix(1,0,0,1,1224.29,293.28)">
                <path d="M0,44.934C1.855,44.642 3.676,44.265 5.468,43.799L5.468,9.819L33.122,27.171C35.23,24.878 37.175,22.439 38.89,19.824L18.284,6.877L30.509,6.877L42.122,14.173C42.683,13.06 43.258,11.955 43.747,10.801L37.477,6.877L45.186,6.877C45.946,4.637 46.618,2.355 47.099,0L0,0L0,44.934Z" style="fill:white;fill-rule:nonzero;"/>
            </g>
            <g transform="matrix(1,0,0,1,1258.74,244.734)">
                <path d="M0,-0.145C-7.478,-8.857 -17.529,-15.255 -28.979,-18.231L-28.979,18.086L0,-0.145Z" style="fill:rgb(50,62,149);fill-rule:nonzero;"/>
            </g>
            <g transform="matrix(1,0,0,1,1202.42,262.819)">
                <path d="M0,-36.693C-11.772,-33.966 -22.127,-27.614 -29.868,-18.864L0,0L0,-36.693Z" style="fill:rgb(50,62,149);fill-rule:nonzero;"/>
            </g>
            <g transform="matrix(1,0,0,1,1270.22,261.356)">
                <path d="M0,4.399C-0.437,2.903 -0.951,1.443 -1.505,0L-8.456,4.399L0,4.399Z" style="fill:rgb(50,62,149);fill-rule:nonzero;"/>
            </g>
            <g transform="matrix(1,0,0,1,1268.04,300.157)">
                <path d="M0,3.924C0.541,2.646 0.99,1.323 1.439,0L-6.27,0L0,3.924Z" style="fill:rgb(50,62,149);fill-rule:nonzero;"/>
            </g>
            <g transform="matrix(1,0,0,1,1173.86,319.483)">
                <path d="M0,1.589C7.583,9.596 17.438,15.398 28.555,17.973L28.555,-16.384L0,1.589Z" style="fill:rgb(50,62,149);fill-rule:nonzero;"/>
            </g>
            <g transform="matrix(1,0,0,1,1229.76,303.099)">
                <path d="M0,33.98C10.795,31.174 20.329,25.316 27.654,17.352L0,0L0,33.98Z" style="fill:rgb(50,62,149);fill-rule:nonzero;"/>
            </g>
            <g transform="matrix(1,0,0,1,1161.23,304.821)">
                <path d="M0,-4.664C0.538,-3.079 1.126,-1.52 1.796,0L9.174,-4.664L0,-4.664Z" style="fill:rgb(50,62,149);fill-rule:nonzero;"/>
            </g>
            <g transform="matrix(1,0,0,1,1162.27,265.755)">
                <path d="M0,-5.154C-0.672,-3.472 -1.268,-1.756 -1.781,0L8.141,0L0,-5.154Z" style="fill:rgb(50,62,149);fill-rule:nonzero;"/>
            </g>
            <g transform="matrix(0.846592,-0.532242,-0.532242,-0.846592,1250.64,266.359)">
                <path d="M-4.166,3.332L19.016,3.332C19.105,5.508 19.052,7.678 18.894,9.841L-14.52,9.842L-4.166,3.332Z" style="fill:rgb(203,0,28);fill-rule:nonzero;"/>
            </g>
            <g transform="matrix(0.846735,0.532014,0.532014,-0.846735,1247.84,294.808)">
                <path d="M-1.617,-7.333L22.719,-7.333C22.761,-5.168 22.654,-2.998 22.449,-0.829L8.734,-0.829L-1.617,-7.333Z" style="fill:rgb(203,0,28);fill-rule:nonzero;"/>
            </g>
            <g transform="matrix(-0.845607,-0.533806,-0.533806,0.845607,1170.39,244.47)">
                <path d="M-29.219,6.726L-0.788,6.726C-0.753,8.899 -0.868,11.074 -1.085,13.251L-18.877,13.255L-29.219,6.726Z" style="fill:rgb(203,0,28);fill-rule:nonzero;"/>
            </g>
            <g transform="matrix(-0.84641,0.532532,0.532532,0.84641,1185.52,319.544)">
                <path d="M-13.053,-14.693L11.804,-14.693C11.75,-12.511 11.564,-10.34 11.263,-8.185L-23.399,-8.184L-13.053,-14.693Z" style="fill:rgb(203,0,28);fill-rule:nonzero;"/>
            </g>
            <g transform="matrix(1,0,0,1,1207.89,225.144)">
                <path d="M0,113.293C2.45,113.613 4.931,113.836 7.469,113.836C10.516,113.836 13.485,113.528 16.403,113.069L16.403,68.135L63.502,68.135C64.259,64.423 64.658,60.582 64.658,56.647C64.658,53.524 64.34,50.482 63.859,47.495L16.403,47.495L16.403,0.224C13.485,-0.235 10.516,-0.543 7.469,-0.543C4.931,-0.543 2.45,-0.32 0,0L0,47.495L-48.921,47.495C-49.402,50.482 -49.72,53.524 -49.72,56.647C-49.72,60.582 -49.321,64.423 -48.564,68.135L0,68.135L0,113.293Z" style="fill:rgb(203,0,28);fill-rule:nonzero;"/>
            </g>
        </g>
    </g>
</svg>
